<?xml version="1.0" encoding="UTF-8" standalone="no"?>
<svg
   xmlns:dc="http://purl.org/dc/elements/1.1/"
   xmlns:cc="http://creativecommons.org/ns#"
   xmlns:rdf="http://www.w3.org/1999/02/22-rdf-syntax-ns#"
   xmlns:svg="http://www.w3.org/2000/svg"
   xmlns="http://www.w3.org/2000/svg"
   xmlns:sodipodi="http://sodipodi.sourceforge.net/DTD/sodipodi-0.dtd"
   xmlns:inkscape="http://www.inkscape.org/namespaces/inkscape"
   inkscape:export-ydpi="100"
   inkscape:export-xdpi="100"
   inkscape:export-filename="C:\Users\engelen\OneDrive - Stichting Deltares\Projects\DSD\DSD_2021\images\iMOD_logo.png"
   inkscape:version="1.0 (4035a4fb49, 2020-05-01)"
   sodipodi:docname="iMOD_tutorial.svg"
   id="svg6"
   preserveAspectRatio="xMidYMid meet"
   viewBox="0 0 1107.000000 1109.000000"
   height="1109.000000pt"
   width="1107.000000pt"
   version="1.0">
  <metadata
     id="metadata12">
    <rdf:RDF>
      <cc:Work
         rdf:about="">
        <dc:format>image/svg+xml</dc:format>
        <dc:type
           rdf:resource="http://purl.org/dc/dcmitype/StillImage" />
        <dc:title></dc:title>
      </cc:Work>
    </rdf:RDF>
  </metadata>
  <defs
     id="defs10" />
  <sodipodi:namedview
     inkscape:current-layer="svg6"
     inkscape:window-maximized="1"
     inkscape:window-y="-8"
     inkscape:window-x="1912"
     inkscape:cy="395.94779"
     inkscape:cx="651.8607"
     inkscape:zoom="0.63999999"
     showgrid="false"
     id="namedview8"
     inkscape:window-height="1057"
     inkscape:window-width="1848"
     inkscape:pageshadow="2"
     inkscape:pageopacity="0"
     guidetolerance="10"
     gridtolerance="10"
     objecttolerance="10"
     borderopacity="1"
     bordercolor="#666666"
     pagecolor="#ffffff"
     inkscape:document-rotation="0" />
  <g
     style="fill:#080c80;fill-opacity:1"
     id="g4"
     stroke="none"
     fill="#000000"
     transform="translate(0.000000,1109.000000) scale(0.100000,-0.100000)">
    <path
       sodipodi:nodetypes="ccccccccccsccc"
       style="fill:#080c80;fill-opacity:1"
       id="path2"
       d="m 955,10675 c -233,-42 -430,-231 -480,-460 -14,-63 -15,-556 -13,-4705 l 3,-4635 23,-65 c 77,-213 256,-367 469,-405 66,-12 802,-14 4643,-15 3114,0 4585,3 4629,11 141,22 245,76 348,179 71,72 131,180 158,285 13,52 15,592 15,4675 0,4083 -2,4623 -15,4675 -62,246 -256,424 -506,464 -102,17 -9182,13 -9274,-4 z" />
  </g>
  <path
     id="path831"
     d="M 318.09527,788.63076 C 278.0938,758.83737 261.11431,717.82619 265.4103,661.37858 c 2.09726,-27.55666 7.55461,-52.01984 18.8446,-84.47239 12.86004,-36.96585 27.76379,-68.88473 55.70581,-119.30322 27.47639,-49.57826 38.31557,-72.56343 45.70925,-96.92888 3.13722,-10.33869 3.51727,-13.64276 3.61722,-31.45121 0.10586,-18.84363 -0.0821,-20.42686 -3.551,-29.85407 -2.01451,-5.47533 -5.90146,-13.41885 -8.63759,-17.65226 -2.73621,-4.23342 -4.75073,-7.69711 -4.47682,-7.69711 2.05022,0 24.89146,8.19333 29.85962,10.71085 8.6973,4.40728 18.49044,12.02572 24.1876,18.81657 18.42004,21.95585 17.7866,57.57934 -1.91294,107.57535 -3.53485,8.97129 -18.04918,39.70871 -32.25407,68.30537 -31.53293,63.48074 -47.03144,96.04277 -54.48475,114.47113 -6.34665,15.69208 -14.86206,44.28441 -17.79767,59.75954 -6.9475,36.62465 -5.71055,87.11105 3.13625,128.00586 1.36306,6.30061 2.31387,11.62 2.11288,11.82096 -0.20091,0.20095 -3.51897,-1.98348 -7.37342,-4.85431 z"
     style="fill:#ffffff;fill-opacity:1;fill-rule:evenodd;stroke:#15aae4;stroke-width:0;stroke-miterlimit:4;stroke-dasharray:none" />
  <path
     id="path835"
     d="m 838.46443,969.18759 c 1.74159,-5.96008 4.80742,-29.60355 6.15808,-47.49062 5.74964,-76.14717 -16.14615,-172.79005 -58.14366,-256.63173 -16.01698,-31.97554 -31.29541,-55.37485 -45.30234,-69.38176 -9.52512,-9.52512 -14.10252,-9.4366 -19.16779,0.37066 -2.8484,5.51508 -9.00432,26.69316 -18.71607,64.38937 -21.26629,82.54429 -34.47781,117.53365 -56.81316,150.46395 -13.00507,19.17405 -35.56874,39.21651 -40.62891,36.08903 -5.30785,-3.2805 -17.61827,-21.7229 -26.40509,-39.55776 -15.52468,-31.51099 -24.60746,-58.98881 -43.61441,-131.94478 -16.56991,-63.60211 -18.77141,-70.29748 -24.95224,-75.88721 -5.74125,-5.19229 -8.23711,0.89962 -21.50584,52.49207 -19.60369,76.22472 -33.18953,107.83002 -56.3328,131.04995 -15.16204,15.21225 -32.71087,21.48949 -51.62794,18.46751 -4.74583,-0.75816 -8.75389,-1.50366 -8.90687,-1.65668 -0.15307,-0.15296 3.58492,-2.28117 8.30656,-4.72921 20.10377,-10.42333 37.67554,-34.46247 50.7205,-69.38859 10.5202,-28.16651 16.6872,-55.04045 29.10329,-126.82397 4.31697,-24.95801 9.52307,-52.00714 11.56927,-60.10919 4.31304,-17.07759 10.50217,-29.46278 16.46281,-32.94398 3.79367,-2.21563 4.42496,-2.23568 10.18264,-0.32328 12.83969,4.26465 28.77323,18.07786 39.59108,34.32246 8.15509,12.24608 18.70644,34.96281 25.5031,54.90765 9.35822,27.46184 14.68,48.4061 29.02172,114.21907 14.24675,65.37697 20.88669,79.79123 30.31256,65.80419 5.57525,-8.27312 12.11389,-29.69359 31.21339,-102.25511 16.78421,-63.76509 27.23434,-95.64246 40.46861,-123.4465 9.27736,-19.49088 13.81612,-26.644 22.94897,-36.16765 8.97434,-9.35825 14.90777,-12.32176 24.53436,-12.25385 10.26244,0.0724 16.85561,3.58557 28.42925,15.14852 36.43511,36.40139 80.79299,147.55998 97.338,243.92426 6.21519,36.19956 7.65867,53.21494 7.63163,89.95972 -0.0197,25.98052 -0.55364,37.87826 -2.13412,47.50067 -2.80048,17.04959 -7.75319,33.70043 -13.33504,44.83171 -4.15489,8.28576 -15.53164,23.69514 -20.59913,27.90081 -1.78942,1.48505 -1.96026,1.3742 -1.31041,-0.84973 z"
     style="fill:#ffffff;fill-opacity:1;fill-rule:evenodd;stroke:#15aae4;stroke-width:0;stroke-miterlimit:4;stroke-dasharray:none" />
  <path
     style="fill:#ffffff;fill-opacity:1;stroke-width:0.383861"
     d="m 396.07656,82.748314 c -3.10928,0 -6.18016,0.537414 -9.0975,1.57383 L 279.30609,123.20725 c -3.64668,1.3435 -6.065,4.79825 -6.065,8.67525 0,3.87699 2.41832,7.33174 6.065,8.67526 l 22.22554,8.02269 c -6.29531,9.9036 -9.86522,21.61136 -9.86522,33.93329 v 10.78649 c 0,10.90164 -4.1457,22.14877 -8.56009,31.01595 -2.4951,4.99019 -5.33566,9.90361 -8.63688,14.43317 -1.22835,1.6506 -1.57383,3.80022 -0.88287,5.75791 0.69094,1.95769 2.30316,3.41636 4.29924,3.91538 l 24.56709,6.14177 c 1.61222,0.42225 3.33959,0.11516 4.75988,-0.76771 1.42028,-0.88288 2.41832,-2.34155 2.72541,-3.99216 3.3012,-16.42924 1.65059,-31.1695 -0.80612,-41.72568 -1.22835,-5.45082 -2.87895,-11.01679 -5.18211,-16.12215 v -9.44297 c 0,-11.5926 3.91537,-22.53264 10.70971,-31.28465 4.9518,-5.94986 11.36228,-10.74811 18.88595,-13.70384 l 60.26616,-23.68421 c 3.14766,-1.22836 6.71757,0.30709 7.94592,3.45475 1.22836,3.14766 -0.30709,6.71756 -3.45476,7.94591 l -60.26614,23.68422 c -4.75988,1.88091 -8.94397,4.75988 -12.36032,8.29139 l 61.26419,22.11038 c 2.91735,1.03643 5.98823,1.57384 9.0975,1.57384 3.10928,0 6.18016,-0.53741 9.09751,-1.57384 l 107.71134,-38.76993 c 3.64667,-1.30514 6.065,-4.79827 6.065,-8.67526 0,-3.877 -2.41833,-7.33175 -6.065,-8.67525 L 405.17406,84.322144 c -2.91735,-1.036416 -5.98823,-1.57383 -9.0975,-1.57383 z M 322.37527,227.07998 c 0,13.55029 33.01204,27.63798 73.70129,27.63798 40.68925,0 73.70127,-14.08769 73.70127,-27.63798 l -5.87307,-55.81336 -54.585,19.73044 c -4.26086,1.53545 -8.75203,2.30317 -13.2432,2.30317 -4.49118,0 -9.02073,-0.76772 -13.2432,-2.30317 l -54.58501,-19.73044 z"
     id="path2-5" />
</svg>
