<?xml version="1.0" encoding="UTF-8" standalone="no"?>
<svg
   xmlns:dc="http://purl.org/dc/elements/1.1/"
   xmlns:cc="http://creativecommons.org/ns#"
   xmlns:rdf="http://www.w3.org/1999/02/22-rdf-syntax-ns#"
   xmlns:svg="http://www.w3.org/2000/svg"
   xmlns="http://www.w3.org/2000/svg"
   xmlns:sodipodi="http://sodipodi.sourceforge.net/DTD/sodipodi-0.dtd"
   xmlns:inkscape="http://www.inkscape.org/namespaces/inkscape"
   width="150"
   height="150"
   viewBox="0 0 39.687499 39.687501"
   version="1.1"
   id="svg8"
   inkscape:version="1.0 (4035a4fb49, 2020-05-01)"
   sodipodi:docname="logo_website.svg"
   inkscape:export-filename="C:\Users\engelen\projects_wdir\imod-logo\qgistim\icon_new.png"
   inkscape:export-xdpi="96"
   inkscape:export-ydpi="96">
  <defs
     id="defs2" />
  <sodipodi:namedview
     inkscape:snap-nodes="true"
     inkscape:snap-grids="true"
     id="base"
     pagecolor="#ffffff"
     bordercolor="#666666"
     borderopacity="1.0"
     inkscape:pageopacity="0.0"
     inkscape:pageshadow="2"
     inkscape:zoom="4.107267"
     inkscape:cx="49.881948"
     inkscape:cy="63.148679"
     inkscape:document-units="mm"
     inkscape:current-layer="layer1"
     inkscape:document-rotation="0"
     showgrid="false"
     units="px"
     inkscape:window-width="1827"
     inkscape:window-height="1057"
     inkscape:window-x="1912"
     inkscape:window-y="-8"
     inkscape:window-maximized="1"
     inkscape:snap-bbox="true">
    <inkscape:grid
       type="xygrid"
       id="grid2394" />
  </sodipodi:namedview>
  <metadata
     id="metadata5">
    <rdf:RDF>
      <cc:Work
         rdf:about="">
        <dc:format>image/svg+xml</dc:format>
        <dc:type
           rdf:resource="http://purl.org/dc/dcmitype/StillImage" />
        <dc:title />
      </cc:Work>
    </rdf:RDF>
  </metadata>
  <g
     inkscape:label="Layer 1"
     inkscape:groupmode="layer"
     id="layer1">
    <ellipse
       style="fill:#ffffff;fill-opacity:1;fill-rule:evenodd;stroke:#ffffff;stroke-width:0.219015;stroke-miterlimit:10;stroke-dasharray:none;stroke-opacity:1"
       id="path2350"
       cy="19.84375"
       cx="19.84375"
       r="1.3902289" />
    <g
       transform="matrix(0.00385183,0,0,-0.00384607,-1.7614412,41.115862)"
       fill="#000000"
       stroke="none"
       id="g4"
       style="fill:#080c80;fill-opacity:1">
      <path
         d="m 955,10675 c -233,-42 -430,-231 -480,-460 -14,-63 -15,-556 -13,-4705 l 3,-4635 23,-65 c 77,-213 256,-367 469,-405 66,-12 802,-14 4643,-15 3114,0 4585,3 4629,11 141,22 245,76 348,179 71,72 131,180 158,285 13,52 15,592 15,4675 0,4083 -2,4623 -15,4675 -62,246 -256,424 -506,464 -102,17 -9182,13 -9274,-4 z"
         id="path2"
         style="fill:#080c80;fill-opacity:1"
         sodipodi:nodetypes="ccccccccccsccc" />
    </g>
    <circle
       r="18.126812"
       style="fill:#080c80;fill-opacity:1;fill-rule:evenodd;stroke:#ffffff;stroke-width:1.73773;stroke-miterlimit:10;stroke-dasharray:none;stroke-opacity:1"
       id="path2354-8-8"
       cx="19.872694"
       cy="19.71648" />
    <circle
       r="10.839594"
       cy="19.747049"
       cx="19.709557"
       id="path2354-8"
       style="fill:#080c80;fill-opacity:1;fill-rule:evenodd;stroke:#ffffff;stroke-width:1.15849;stroke-miterlimit:10;stroke-dasharray:none;stroke-opacity:1" />
    <circle
       r="2.2139885"
       cy="19.747049"
       cx="19.709557"
       id="path837"
       style="fill:#ffffff;fill-rule:evenodd;stroke:#ffffff;stroke-width:0.836782;stroke-miterlimit:10" />
  </g>
</svg>
